<?xml version="1.0" encoding="UTF-8"?>
<svg width="60px" height="60px" viewBox="0 0 60 60" version="1.1" xmlns="http://www.w3.org/2000/svg" xmlns:xlink="http://www.w3.org/1999/xlink">
    <!-- Generator: Sketch 44.1 (41455) - http://www.bohemiancoding.com/sketch -->
    <title>Artboard 5</title>
    <desc>Created with Sketch.</desc>
    <defs></defs>
    <g id="Page-1" stroke="none" stroke-width="1" fill="none" fill-rule="evenodd">
        <g id="Artboard-5" fill="#000000">
            <g id="basket" transform="translate(5.000000, 8.000000)">
                <path d="M36.4891353,15.9771265 L47.271551,15.9771265 C48.5096154,15.9771265 49.5225772,17.0071705 49.5225772,18.2661132 L49.4550464,18.8841395 L43.7374398,40.1030454 C43.1971935,42.0257942 41.4639033,43.4449659 39.3929591,43.4449659 L10.1296181,43.4449659 C8.05867392,43.4449659 6.32538372,42.0257942 5.80764769,40.1030454 L0.0900410494,18.8841395 C0.0225102624,18.6781307 0,18.4721219 0,18.2661132 C0,17.0071705 1.01296181,15.9771265 2.25102624,15.9771265 L13.0334419,15.9771265 L22.8929368,0.984264243 C23.3206318,0.320458125 24.0409602,0 24.7612886,0 C25.481617,0 26.2019454,0.320458125 26.6296404,0.961374376 L36.4891353,15.9771265 Z M17.9423085,15.8407719 L31.442308,15.8407719 L24.6923082,5.76923077 L17.9423085,15.8407719 Z M20.1923077,27.6548963 C20.1923077,30.1727816 22.2182313,32.2328695 24.6943602,32.2328695 C27.170489,32.2328695 29.1964126,30.1727816 29.1964126,27.6548963 C29.1964126,25.137011 27.170489,23.0769231 24.6943602,23.0769231 C22.2182313,23.0769231 20.1923077,25.137011 20.1923077,27.6548963 Z" id="Combined-Shape"></path>
            </g>
        </g>
    </g>
</svg>