<?xml version="1.0" encoding="UTF-8"?>
<svg width="50px" height="44px" viewBox="0 0 50 44" version="1.1" xmlns="http://www.w3.org/2000/svg" xmlns:xlink="http://www.w3.org/1999/xlink">
    <!-- Generator: Sketch 44.1 (41455) - http://www.bohemiancoding.com/sketch -->
    <title>basket</title>
    <desc>Created with Sketch.</desc>
    <defs></defs>
    <g id="Page-1" stroke="none" stroke-width="1" fill="none" fill-rule="evenodd">
        <g id="Artboard-5" transform="translate(-5.000000, -8.000000)" fill="#000000">
            <g id="basket" transform="translate(5.000000, 8.000000)">
                <path d="M36.4891353,15.9771265 L47.271551,15.9771265 C48.5096154,15.9771265 49.5225772,17.0071705 49.5225772,18.2661132 L49.4550464,18.8841395 L43.7374398,40.1030454 C43.1971935,42.0257942 41.4639033,43.4449659 39.3929591,43.4449659 L10.1296181,43.4449659 C8.05867392,43.4449659 6.32538372,42.0257942 5.80764769,40.1030454 L0.0900410494,18.8841395 C0.0225102624,18.6781307 0,18.4721219 0,18.2661132 C0,17.0071705 1.01296181,15.9771265 2.25102624,15.9771265 L13.0334419,15.9771265 L22.8929368,0.984264243 C23.3206318,0.320458125 24.0409602,0 24.7612886,0 C25.481617,0 26.2019454,0.320458125 26.6296404,0.961374376 L36.4891353,15.9771265 Z M18,16.0715411 L31.4999995,16.0715411 L24.7499998,6 L18,16.0715411 Z M20,27.9977205 C20,30.7464668 22.25,32.995441 25,32.995441 C27.75,32.995441 30,30.7464668 30,27.9977205 C30,25.2489742 27.75,23 25,23 C22.25,23 20,25.2489742 20,27.9977205 Z" id="Combined-Shape"></path>
            </g>
        </g>
    </g>
</svg>