<?xml version="1.0" encoding="UTF-8"?>
<svg width="40px" height="40px" viewBox="0 0 40 40" version="1.1" xmlns="http://www.w3.org/2000/svg" xmlns:xlink="http://www.w3.org/1999/xlink">
    <!-- Generator: Sketch 44.1 (41455) - http://www.bohemiancoding.com/sketch -->
    <title>chef</title>
    <desc>Created with Sketch.</desc>
    <defs></defs>
    <g id="Page-1" stroke="none" stroke-width="1" fill="none" fill-rule="evenodd">
        <g id="Artboard-2" transform="translate(-10.000000, -10.000000)" fill="#000000">
            <g id="chef" transform="translate(10.000000, 10.000000)">
                <path d="M9.23076923,23.0424284 C8.97741382,23.0652595 8.72083822,23.0769231 8.46153846,23.0769231 C3.78835981,23.0769231 0,19.2885633 0,14.6153846 C0,9.94220596 3.78835981,6.15384615 8.46153846,6.15384615 C9.40220627,6.15384615 10.307023,6.30734284 11.1523077,6.59065524 C12.2879778,2.77911666 15.8194402,0 20,0 C24.1805598,0 27.7120222,2.77911666 28.8476923,6.59065524 C29.692977,6.30734284 30.5977937,6.15384615 31.5384615,6.15384615 C36.2116402,6.15384615 40,9.94220596 40,14.6153846 C40,19.2885633 36.2116402,23.0769231 31.5384615,23.0769231 C31.2791618,23.0769231 31.0225862,23.0652595 30.7692308,23.0424284 L30.7692308,38 L30.7692308,38 C30.7692308,39.1045695 29.8738003,40 28.7692308,40 L11.2307692,40 C10.1261997,40 9.23076923,39.1045695 9.23076923,38 L9.23076923,23.0424284 Z M9.23076923,32.3076923 L9.23076923,35.3846154 L30.7692308,35.3846154 L30.7692308,32.3076923 L9.23076923,32.3076923 Z" id="Combined-Shape"></path>
            </g>
        </g>
    </g>
</svg>