<?xml version="1.0" encoding="UTF-8"?>
<svg width="32px" height="45px" viewBox="0 0 32 45" version="1.1" xmlns="http://www.w3.org/2000/svg" xmlns:xlink="http://www.w3.org/1999/xlink">
    <!-- Generator: Sketch 44.1 (41455) - http://www.bohemiancoding.com/sketch -->
    <title>Combined Shape</title>
    <desc>Created with Sketch.</desc>
    <defs></defs>
    <g id="Page-1" stroke="none" stroke-width="1" fill="none" fill-rule="evenodd">
        <g id="Artboard-3" transform="translate(-14.000000, -6.000000)" fill="#000000">
            <path d="M20,22.5092581 L20,13.6 C20.0005714,10.4191964 24.3437518,6 29.7005885,6 L30.2999829,6 C35.6568196,6 39.9988572,10.4191964 39.9988572,13.6 L39.9988572,19.2402857 L39.9988572,22.5083421 C43.6573621,25.4405617 46,29.9467047 46,35 C46,43.836556 38.836556,51 30,51 C21.163444,51 14,43.836556 14,35 C14,29.9472308 16.3421501,25.4415001 20,22.5092581 Z M30,44 C34.9705627,44 39,39.9705627 39,35 C39,30.0294373 34.9705627,26 30,26 C25.0294373,26 21,30.0294373 21,35 C21,39.9705627 25.0294373,44 30,44 Z" id="Combined-Shape" transform="translate(30.000000, 28.500000) rotate(180.000000) translate(-30.000000, -28.500000) "></path>
        </g>
    </g>
</svg>